<?xml version="1.0" encoding="utf-8"?>
<!-- Generator: Adobe Illustrator 24.0.3, SVG Export Plug-In . SVG Version: 6.00 Build 0)  -->
<svg version="1.1" id="Layer_1" xmlns="http://www.w3.org/2000/svg" xmlns:xlink="http://www.w3.org/1999/xlink" x="0px" y="0px"
	 viewBox="0 0 200 250" style="enable-background:new 0 0 200 250;" xml:space="preserve">
<style type="text/css">
	.st0{fill:#FFFFFF;}
	.st1{fill:none;}
	.st2{fill:#B4E9FF;}
	.st3{font-family:'GillSans';}
	.st4{font-size:115px;}
	.st5{fill:#5FCBFF;}
	.st6{fill:#0099C9;}
	.st7{fill:#0000FF;}
	.st8{fill:none;stroke:#000000;stroke-miterlimit:10;}
	.st9{fill:#FF0000;}
	.st10{fill:#FFFF00;}
	.st11{fill:#009245;}
</style>
<rect x="-18.2" y="-10" class="st0" width="222" height="275"/>
<rect x="53.5" y="-71.1" class="st1" width="160.6" height="325.6"/>
<g>
	<text transform="matrix(4.489659e-11 -1 1 4.489659e-11 128.1401 242.916)" class="st2 st3 st4">1998</text>
	<text transform="matrix(4.489659e-11 -1 1 4.489659e-11 131.5538 250.1543)" class="st5 st3 st4">1998</text>
	<text transform="matrix(4.489659e-11 -1 1 4.489659e-11 136.0551 256.4062)" class="st6 st3 st4">1998</text>
	<text transform="matrix(4.489659e-11 -1 1 4.489659e-11 139.4905 260.5195)" class="st7 st3 st4">1</text>
	<text transform="matrix(4.489659e-11 -1 1 4.489659e-11 139.4905 260.5195)" class="st8 st3 st4">1</text>
	<text transform="matrix(4.489659e-11 -1 1 4.489659e-11 139.4905 203.0195)" class="st9 st3 st4">9</text>
	<text transform="matrix(4.489659e-11 -1 1 4.489659e-11 139.4905 203.0195)" class="st8 st3 st4">9</text>
	<text transform="matrix(4.489659e-11 -1 1 4.489659e-11 139.4905 145.5195)" class="st10 st3 st4">9</text>
	<text transform="matrix(4.489659e-11 -1 1 4.489659e-11 139.4905 145.5195)" class="st8 st3 st4">9</text>
	<text transform="matrix(4.489659e-11 -1 1 4.489659e-11 139.4905 88.0195)" class="st11 st3 st4">8</text>
	<text transform="matrix(4.489659e-11 -1 1 4.489659e-11 139.4905 88.0195)" class="st8 st3 st4">8</text>
</g>
</svg>
