<?xml version="1.0" encoding="utf-8"?>
<!-- Generator: Adobe Illustrator 24.0.3, SVG Export Plug-In . SVG Version: 6.00 Build 0)  -->
<svg version="1.1" id="Layer_1" xmlns="http://www.w3.org/2000/svg" xmlns:xlink="http://www.w3.org/1999/xlink" x="0px" y="0px"
	 viewBox="0 0 20 250" style="enable-background:new 0 0 20 250;" xml:space="preserve">
<style type="text/css">
	.st0{fill:#FFFFFF;}
</style>
<rect x="-1.6" y="-1.6" width="21.6" height="254.2"/>
<g>
	<g>
		<path class="st0" d="M10.1,235.2l2.9,1.1v0.7l-8.4-3.1V233l8.4-3.2v0.7l-2.9,1.1V235.2z M9.5,231.8c-2.5,0.9-3.7,1.4-4.3,1.6v0
			c0.6,0.2,2.1,0.7,4.3,1.5V231.8z"/>
		<path class="st0" d="M13,214.6H4.6v-1c2-1.3,6.7-4.4,7.6-4.9v0c-1.2,0.1-2.4,0.1-3.8,0.1H4.6v-0.7H13v0.9c-1.9,1.2-6.8,4.4-7.7,5
			v0c1.1-0.1,2.3,0,3.8,0H13V214.6z"/>
		<path class="st0" d="M4.6,192v-2.8c0-2.3,1.6-3.9,4.1-3.9c2.5,0,4.3,1.6,4.3,3.9v2.8H4.6z M12.4,191.4v-2c0-2.2-1.6-3.3-3.6-3.3
			c-1.8,0-3.6,1-3.6,3.3v2H12.4z"/>
		<path class="st0" d="M4.6,144.4v-2.9c0-1.6,0.9-2.5,2.1-2.5c1,0,1.6,0.6,1.8,1.3c0.2-0.6,0.8-1.6,2.1-1.6c1.7,0,2.4,1.3,2.4,2.7v3
			H4.6z M8.2,141.7c0-1.5-0.5-2-1.5-2c-0.8,0-1.5,0.6-1.5,1.8v2.3h3V141.7z M12.4,143.8v-2.4c0-1.1-0.6-2-1.8-2
			c-1.1,0-1.8,0.7-1.8,2.4v2H12.4z"/>
		<path class="st0" d="M8.9,118.2v4.3h3.5v-4.7l0.6,0.1v5.2H4.6V118h0.6v4.5h3.1v-4.3H8.9z"/>
		<path class="st0" d="M13,100.5H9.9c-0.1,0-0.2,0-0.2,0l-5,3v-0.8c1.4-0.8,3.9-2.3,4.5-2.7c-0.6-0.4-3.1-1.8-4.5-2.7v-0.7l5.1,3.1
			c0,0,0.1,0,0.2,0H13V100.5z"/>
		<path class="st0" d="M8.8,74.7c2.3,0,4.4,1.2,4.4,3.8c0,2.4-1.9,3.7-4.3,3.7c-2.4,0-4.3-1.3-4.3-3.8C4.5,76.2,6.3,74.7,8.8,74.7z
			 M8.8,81.6c1.9,0,3.8-1.1,3.8-3.1c0-2.2-1.8-3.1-3.8-3.1c-2,0-3.7,1-3.7,3.1C5.1,80.6,6.9,81.6,8.8,81.6z"/>
		<path class="st0" d="M13,59.1H4.6v-1c2-1.3,6.7-4.4,7.6-4.9v0c-1.2,0.1-2.4,0.1-3.8,0.1H4.6v-0.7H13v0.9c-1.9,1.2-6.8,4.4-7.7,5v0
			c1.1-0.1,2.3,0,3.8,0H13V59.1z"/>
		<path class="st0" d="M4.6,36.5v-2.8c0-2.3,1.6-3.9,4.1-3.9c2.5,0,4.3,1.6,4.3,3.9v2.8H4.6z M12.4,35.9v-2c0-2.2-1.6-3.3-3.6-3.3
			c-1.8,0-3.6,1-3.6,3.3v2H12.4z"/>
		<path class="st0" d="M8.6,14.4H7v-0.6h1.5V14.4z M14.4,15.2c-1.1-0.5-2-0.8-2.9-0.8v-0.6c1,0,2.3,0.5,2.9,0.9V15.2z"/>
	</g>
</g>
</svg>
